HIERARCHY
ROOT Hips
{
	OFFSET 0.000000 0.000000 0.000000
	CHANNELS 6 Xposition Yposition Zposition Zrotation Yrotation Xrotation 
	JOINT LHipJoint
	{
		OFFSET 0.000000 0.000000 0.000000
		CHANNELS 3 Zrotation Yrotation Xrotation
		JOINT LeftUpLeg
		{
			OFFSET 1.363060 -1.794630 0.839290
			CHANNELS 3 Zrotation Yrotation Xrotation
			JOINT LeftLeg
			{
				OFFSET 2.448110 -6.726130 0.000000
				CHANNELS 3 Zrotation Yrotation Xrotation
				JOINT LeftFoot
				{
					OFFSET 2.562200 -7.039590 0.000000
					CHANNELS 3 Zrotation Yrotation Xrotation
					JOINT LeftToeBase
					{
						OFFSET 0.157640 -0.433110 2.322550
						CHANNELS 3 Zrotation Yrotation Xrotation
						End Site
						{
							OFFSET 0.000000 0.000000 0.000000
						}
					}
				}
			}
		}
	}
	JOINT RHipJoint
	{
		OFFSET 0.000000 0.000000 0.000000
		CHANNELS 3 Zrotation Yrotation Xrotation
		JOINT RightUpLeg
		{
			OFFSET -1.305520 -1.794630 0.839290
			CHANNELS 3 Zrotation Yrotation Xrotation
			JOINT RightLeg
			{
				OFFSET -2.542530 -6.985550 0.000000
				CHANNELS 3 Zrotation Yrotation Xrotation
				JOINT RightFoot
				{
					OFFSET -2.568260 -7.056230 0.000000
					CHANNELS 3 Zrotation Yrotation Xrotation
					JOINT RightToeBase
					{
						OFFSET -0.164730 -0.452590 2.363150
						CHANNELS 3 Zrotation Yrotation Xrotation
						End Site
						{
							OFFSET 0.000000 0.000000 0.000000
						}
					}
				}
			}
		}
	}
}
MOTION
Frames: 14
Frame Time: 0.008333
13.660182 15.670290 2.197150 87.163066 -86.119169 -42.301252 -8.277383 -0.221600 4.190115 -11.396719 -11.248333 -75.298260 -1.954170 2.699127 48.493457 3.437865 9.144881 -21.960369 -2.128800 -0.000001 -36.404700 8.786616 1.002946 4.384996 4.919758 4.367476 -78.465591 1.443194 -4.422518 53.458369 -3.185303 -6.177267 -23.215627 1.567100 0.000000 -51.048500
13.637286 15.623741 2.204101 87.053217 -86.071332 -41.530218 -8.253570 -0.221581 4.275575 -11.323526 -11.580247 -76.363268 -1.922474 2.786475 49.192899 3.472814 9.124198 -22.265078 -2.179800 -0.000000 -36.356300 8.796065 1.028386 4.450641 4.854561 4.374337 -79.589589 1.429346 -4.545776 54.167574 -3.177321 -6.034500 -23.478563 1.585700 -0.000000 -51.142700
13.614426 15.576580 2.210743 86.927717 -86.010866 -40.726387 -8.227441 -0.219862 4.365723 -11.236810 -11.943403 -77.435825 -1.887199 2.869771 49.874433 3.511618 9.123248 -22.555668 -2.230600 0.000000 -36.313800 8.807525 1.059316 4.521629 4.753303 4.391681 -80.731848 1.407525 -4.667239 54.879749 -3.176426 -5.922530 -23.738660 1.606900 0.000000 -51.227000
13.591703 15.528649 2.217123 86.786782 -85.936415 -39.890214 -8.198771 -0.216992 4.460471 -11.133824 -12.341014 -78.517346 -1.847408 2.948694 50.542236 3.555487 9.146654 -22.834864 -2.282700 0.000000 -36.262799 8.820985 1.096605 4.597117 4.613244 4.416796 -81.892832 1.377357 -4.787101 55.599268 -3.182925 -5.841704 -24.000366 1.632000 -0.000000 -51.290400
13.569123 15.479740 2.223296 86.626929 -85.849434 -39.019576 -8.167709 -0.214154 4.558481 -11.011097 -12.771639 -79.608450 -1.802237 3.023312 51.202822 3.605229 9.197062 -23.107352 -2.337600 -0.000001 -36.190000 8.835873 1.140403 4.675590 4.436063 4.448936 -83.070209 1.339113 -4.905451 56.329142 -3.196958 -5.790884 -24.269954 1.662000 0.000000 -51.316300
13.546932 15.429594 2.229209 86.448444 -85.746000 -38.116266 -8.133709 -0.211392 4.660561 -10.866991 -13.240784 -80.711601 -1.750527 3.093429 51.863002 3.662134 9.279203 -23.376106 -2.397100 0.000000 -36.086500 8.852713 1.192019 4.756756 4.217559 4.482710 -84.267629 1.291889 -5.023145 57.078579 -3.218491 -5.769422 -24.551696 1.698000 0.000000 -51.297900
13.525245 15.377936 2.234871 86.246771 -85.626567 -37.178987 -8.096803 -0.209638 4.765682 -10.699134 -13.746958 -81.827664 -1.691398 3.159310 52.530764 3.726690 9.394552 -23.645149 -2.462500 -0.000000 -35.947300 8.871251 1.251840 4.839346 3.958735 4.515349 -85.483105 1.235604 -5.140633 57.853159 -3.247346 -5.775590 -24.850883 1.740900 0.000000 -51.223600
13.504083 15.324617 2.240371 86.013271 -85.497876 -36.204131 -8.057911 -0.211296 4.870121 -10.503719 -14.277931 -82.958616 -1.624493 3.222527 53.218948 3.797773 9.537413 -23.921683 -2.535000 -0.000000 -35.770300 8.889959 1.318756 4.921037 3.668532 4.550260 -86.709730 1.171171 -5.257880 58.654680 -3.283433 -5.806963 -25.174502 1.791900 0.000000 -51.077500
13.483453 15.269280 2.245745 85.744873 -85.361171 -35.191475 -8.017555 -0.217165 4.973031 -10.279966 -14.828733 -84.106170 -1.549314 3.283996 53.937232 3.874842 9.705417 -24.208648 -2.615100 0.000000 -35.560700 8.908563 1.392389 5.001538 3.349164 4.586675 -87.945632 1.098108 -5.375217 59.489507 -3.326572 -5.862859 -25.524789 1.851900 0.000001 -50.857300
13.463424 15.211603 2.250969 85.442677 -85.219451 -34.145125 -7.976240 -0.228252 5.072546 -10.027991 -15.391883 -85.273058 -1.465675 3.345114 54.695964 3.956781 9.893911 -24.509131 -2.703000 -0.000000 -35.327800 8.926530 1.472365 5.080297 3.004128 4.625656 -89.190111 1.016129 -5.493045 60.363396 -3.376376 -5.941868 -25.903448 1.921299 0.000000 -50.563200
13.444002 15.151370 2.256143 85.101274 -85.080019 -33.065387 -7.935163 -0.246387 5.165685 -9.747357 -15.952967 -86.461327 -1.373788 3.407958 55.506037 4.041539 10.094726 -24.826608 -2.798600 0.000000 -35.083300 8.942526 1.557033 5.156317 2.642053 4.672482 -90.437226 0.925475 -5.611126 61.277922 -3.432499 -6.043055 -26.310454 2.000500 0.000000 -50.195800
13.425154 15.088197 2.261201 84.732679 -84.941615 -31.964797 -7.894511 -0.271020 5.253049 -9.441624 -16.510142 -87.672903 -1.273706 3.473384 56.372731 4.128364 10.305683 -25.159796 -2.901500 0.000000 -34.841500 8.957086 1.646475 5.231105 2.261104 4.725338 -91.691373 0.824809 -5.729982 62.240421 -3.494336 -6.166575 -26.741248 2.089200 0.000000 -49.771200
13.406854 15.021840 2.266135 84.343159 -84.808204 -30.852491 -7.855056 -0.302659 5.333421 -9.113336 -17.053994 -88.909392 -1.165970 3.543002 57.301828 4.215604 10.520746 -25.509111 -3.010900 -0.000000 -34.615200 8.969726 1.739565 5.305116 1.865687 4.787296 -92.951227 0.713809 -5.849424 63.252320 -3.561304 -6.312192 -27.191217 2.187300 0.000000 -49.301300
13.389035 14.952219 2.271064 83.922356 -84.690108 -29.723010 -7.818318 -0.343087 5.403648 -8.763089 -17.566719 -90.170801 -1.051302 3.619114 58.300286 4.300752 10.730816 -25.876354 -3.125800 0.000000 -34.413800 8.978854 1.833811 5.377213 1.468570 4.866895 -94.210206 0.593428 -5.968857 64.310231 -3.632900 -6.478916 -27.657044 2.294500 0.000000 -48.793100
